<svg id="图层_1" data-name="图层 1" xmlns="http://www.w3.org/2000/svg" xmlns:xlink="http://www.w3.org/1999/xlink" viewBox="0 0 1171.97 1280.02"><defs><style>.cls-1{mask:url(#mask);}.cls-10,.cls-11,.cls-13,.cls-15,.cls-2,.cls-4,.cls-5,.cls-6,.cls-7,.cls-8,.cls-9{fill-rule:evenodd;}.cls-2,.cls-4{mix-blend-mode:multiply;}.cls-2{fill:url(#linear-gradient);}.cls-3{mask:url(#mask-2);}.cls-4{fill:url(#linear-gradient-2);}.cls-5{fill:url(#linear-gradient-3);}.cls-6{fill:url(#linear-gradient-4);}.cls-7{fill:url(#linear-gradient-5);}.cls-8{fill:url(#linear-gradient-6);}.cls-9{fill:url(#linear-gradient-7);}.cls-10{fill:url(#linear-gradient-8);}.cls-11{fill:url(#linear-gradient-9);}.cls-12{mask:url(#mask-3);}.cls-13{fill:url(#linear-gradient-10);}.cls-14{mask:url(#mask-4);}.cls-15{fill:url(#linear-gradient-11);}.cls-16{filter:url(#luminosity-noclip-4);}.cls-17{filter:url(#luminosity-noclip-3);}.cls-18{filter:url(#luminosity-noclip-2);}.cls-19{filter:url(#luminosity-noclip);}</style><filter id="luminosity-noclip" x="787.43" y="-8901" width="467.31" height="32766" filterUnits="userSpaceOnUse" color-interpolation-filters="sRGB"><feFlood flood-color="#fff" result="bg"/><feBlend in="SourceGraphic" in2="bg"/></filter><mask id="mask" x="787.43" y="-8901" width="467.31" height="32766" maskUnits="userSpaceOnUse"><g class="cls-19"/></mask><linearGradient id="linear-gradient" x1="1153.2" y1="338.84" x2="1010.36" y2="559.82" gradientUnits="userSpaceOnUse"><stop offset="0" stop-color="#fff"/><stop offset="1"/></linearGradient><filter id="luminosity-noclip-2" x="577.99" y="-8901" width="401.55" height="32766" filterUnits="userSpaceOnUse" color-interpolation-filters="sRGB"><feFlood flood-color="#fff" result="bg"/><feBlend in="SourceGraphic" in2="bg"/></filter><mask id="mask-2" x="577.99" y="-8901" width="401.55" height="32766" maskUnits="userSpaceOnUse"><g class="cls-18"/></mask><linearGradient id="linear-gradient-2" x1="878.26" y1="-11.9" x2="765.1" y2="202.87" xlink:href="#linear-gradient"/><linearGradient id="linear-gradient-3" x1="539.36" y1="1131.36" x2="558.16" y2="1342.52" gradientUnits="userSpaceOnUse"><stop offset="0" stop-color="#1e95d4"/><stop offset="1" stop-color="#003e8c"/></linearGradient><linearGradient id="linear-gradient-4" x1="1121.72" y1="659.27" x2="748.57" y2="1301.93" xlink:href="#linear-gradient-3"/><linearGradient id="linear-gradient-5" x1="1021.09" y1="420.81" x2="1021.09" y2="802.4" gradientUnits="userSpaceOnUse"><stop offset="0" stop-color="#d71718"/><stop offset="1" stop-color="#901d22"/></linearGradient><linearGradient id="linear-gradient-6" x1="779.16" y1="121.04" x2="777.89" y2="302.45" xlink:href="#linear-gradient-5"/><linearGradient id="linear-gradient-7" x1="289.94" y1="761.44" x2="305.82" y2="995.33" gradientUnits="userSpaceOnUse"><stop offset="0" stop-color="#1e95d4"/><stop offset="0.3" stop-color="#167fc1"/><stop offset="0.93" stop-color="#024592"/><stop offset="1" stop-color="#003e8c"/></linearGradient><linearGradient id="linear-gradient-8" x1="99.21" y1="934.91" x2="550.54" y2="291.91" xlink:href="#linear-gradient-3"/><linearGradient id="linear-gradient-9" x1="426.24" y1="1075.52" x2="777.07" y2="590.45" xlink:href="#linear-gradient-3"/><filter id="luminosity-noclip-3" x="787.43" y="395.22" width="467.31" height="295.71" filterUnits="userSpaceOnUse" color-interpolation-filters="sRGB"><feFlood flood-color="#fff" result="bg"/><feBlend in="SourceGraphic" in2="bg"/></filter><mask id="mask-3" x="679.96" y="326.57" width="467.31" height="295.71" maskUnits="userSpaceOnUse"><g class="cls-17"><g transform="translate(-107.47 -68.65)"><g id="_编组_3" data-name="&lt;编组&gt;"><g class="cls-1"><path id="_路径_" data-name="&lt;路径&gt;" class="cls-2" d="M988,690.93,814.36,435.29c-8.41-12.38-16.78-24.79-26.93-39.76,19.95,0,37.35,0,54.77,0,67.28-.14,134.55-.49,201.84-.16,5.32,0,12.76,3.33,15.65,7.56q96.7,141.44,192.53,283.53c1,1.43,1.67,3,2.53,4.48Z"/></g></g></g></g></mask><linearGradient id="linear-gradient-10" x1="1153.2" y1="338.84" x2="1010.36" y2="559.82" gradientUnits="userSpaceOnUse"><stop offset="0" stop-color="#fff"/><stop offset="1" stop-color="#fff"/></linearGradient><filter id="luminosity-noclip-4" x="577.99" y="81.15" width="401.55" height="191.76" filterUnits="userSpaceOnUse" color-interpolation-filters="sRGB"><feFlood flood-color="#fff" result="bg"/><feBlend in="SourceGraphic" in2="bg"/></filter><mask id="mask-4" x="470.52" y="12.5" width="401.55" height="191.76" maskUnits="userSpaceOnUse"><g class="cls-16"><g transform="translate(-107.47 -68.65)"><g id="_编组_4" data-name="&lt;编组&gt;"><g class="cls-3"><path id="_路径_2" data-name="&lt;路径&gt;" class="cls-4" d="M852.45,81.15c1.91,3.73,3.44,7.7,5.77,11.17q56,83,112.2,165.89c2.81,4.15,5.33,8.46,9.13,14.52H966.49c-81.44,0-162.87-.11-244.31.18-8.64,0-13.91-2.42-18.93-9.78C661.77,202.28,619.8,141.77,578,81.15Z"/></g></g></g></g></mask><linearGradient id="linear-gradient-11" x1="878.26" y1="-11.9" x2="765.1" y2="202.87" xlink:href="#linear-gradient-10"/></defs><title>视尔logo  新改.ai  最终</title><g id="_编组_5" data-name="&lt;编组&gt;"><path id="_路径_3" data-name="&lt;路径&gt;" class="cls-5" d="M385,1132H693.84c-52.86,72.76-104.66,144-157.44,216.65C486.24,1276.92,436.66,1206,385,1132Z" transform="translate(-107.47 -68.65)"/><path id="_路径_4" data-name="&lt;路径&gt;" class="cls-6" d="M536.29,1348.67c33-48.92,65.91-97.94,99.13-146.74Q802.09,957.08,968.77,712.21c5.5-8.14,11.06-11,20.81-11,96.62.38,193.24.2,289.86.16v5.18c-3.53,4.16-7.41,8.08-10.5,12.5q-186.71,269.45-373.21,538.92c-20.8,30.11-41.13,60.49-61.67,90.73Z" transform="translate(-107.47 -68.65)"/><path id="_路径_5" data-name="&lt;路径&gt;" class="cls-7" d="M762.75,382.46c28.38,0,54.53,0,80.67,0,69-.12,138.06-.45,207.07,0,5.74,0,13.79,3.45,16.85,8,70.77,103.55,141,207.46,212.09,312.44-4,.38-7.1,1-10.31,1q-139.12.07-278.24.17c-7,0-11.56-1.53-15.9-7.9Q872.35,544.49,769.06,393.34C767.21,390.64,765.76,387.68,762.75,382.46Z" transform="translate(-107.47 -68.65)"/><path id="_路径_6" data-name="&lt;路径&gt;" class="cls-8" d="M1003.82,285.35H786.93c-25.45,0-50.89.27-76.34-.28-4.34-.09-10.32-2.47-12.68-5.83Q626.69,177.57,556.23,75.33c-.91-1.3-1.33-2.94-2.52-5.7,4.65-.33,8.32-.84,12-.84q140.37-.06,280.75-.14c7.35,0,12.71,1.11,17.34,8q68.08,101.49,136.8,202.56C1001.47,280.52,1002.09,282.05,1003.82,285.35Z" transform="translate(-107.47 -68.65)"/><g id="_编组_6" data-name="&lt;编组&gt;"><path id="_路径_7" data-name="&lt;路径&gt;" class="cls-9" d="M318,1035.73C248.67,934.33,180.13,834,111.31,733.79c-5.65-8.24-5.58-12.62,3.64-18.15,53.57-32.19,106.7-65.07,160.23-97.32,3.68-2.21,9.31-1.24,14-1.6.78,0,1.6.65,2.43.84,40,8.31,66.09,32.74,87.33,67.31,29.26,47.63,63,92.46,95.18,138.9Z" transform="translate(-107.47 -68.65)"/><path id="_路径_8" data-name="&lt;路径&gt;" class="cls-10" d="M107.47,720.6c3.51-4.16,7.42-8,10.44-12.52q213-314.22,425.83-628.53c2.14-3.15,4.46-6.19,7.88-10.9,4.32,6.1,7.95,11.17,11.52,16.31q68.33,98.18,136.38,196.56c1.88,2.73,1.78,9-.12,11.83Q552.62,507.12,405.48,720.64c-4.83,7-10.09,7.76-17.24,7.74q-140.39-.13-280.77,0Z" transform="translate(-107.47 -68.65)"/><path id="_路径_9" data-name="&lt;路径&gt;" class="cls-11" d="M764.34,382.23c39.94,57.51,78.55,113,117.11,168.66C891,564.69,900,579,910,592.44c5.19,7,5.28,11.92.21,19.28Q796.06,777.31,682.44,943.29c-19.52,28.44-38.92,57-58.83,85.13-2.47,3.48-7.82,7-11.85,7-96.61.38-193.23.27-289.86.21-1.18,0-2.38-.5-6.54-1.37C465.08,816.86,614,600.55,764.34,382.23Z" transform="translate(-107.47 -68.65)"/></g><g class="cls-12"><path id="_路径_10" data-name="&lt;路径&gt;" class="cls-13" d="M988,690.93,814.36,435.29c-8.41-12.38-16.78-24.79-26.93-39.76,19.95,0,37.35,0,54.77,0,67.28-.14,134.55-.49,201.84-.16,5.32,0,12.76,3.33,15.65,7.56q96.7,141.44,192.53,283.53c1,1.43,1.67,3,2.53,4.48Z" transform="translate(-107.47 -68.65)"/></g><g class="cls-14"><path id="_路径_11" data-name="&lt;路径&gt;" class="cls-15" d="M852.45,81.15c1.91,3.73,3.44,7.7,5.77,11.17q56,83,112.2,165.89c2.81,4.15,5.33,8.46,9.13,14.52H966.49c-81.44,0-162.87-.11-244.31.18-8.64,0-13.91-2.42-18.93-9.78C661.77,202.28,619.8,141.77,578,81.15Z" transform="translate(-107.47 -68.65)"/></g></g></svg>